<?xml version="1.0" encoding="utf-8"?>
<!-- External outline only, from sole.svg (human-foot, SVG Repo public domain). stroke-width 2.4. -->
<svg xmlns="http://www.w3.org/2000/svg" viewBox="-14 -14 519.365 519.365" fill="none" stroke="#B8975A" stroke-width="2.4" stroke-linejoin="round" stroke-linecap="round">
  <path d="M344.881,113.51V46.952C344.881,21.063,323.819,0,297.93,0c-16.513,0-31.051,8.576-39.424,21.509 c-4.188-2.19-8.833-3.354-13.622-3.354c-15.75,0-28.653,12.423-29.425,27.938c-1.702-0.43-3.586-0.63-6.075-0.63 c-16.246,0-29.463,13.217-29.463,29.414l-0.01,0.847c-14.587,1.75-25.934,14.195-25.934,29.276l0.027,3.639 c-13.939,1.091-21.867,10.802-21.866,27.103l0.673,32.281c-6.271,14.61-6.838,42.246-0.548,69.501 c2.632,11.406,5.807,19.779,9.483,29.475c7.672,20.234,18.179,47.947,32.017,126.437c15.022,85.207,57.12,97.93,80.877,97.93 c8.619,0,14.688-1.722,15.895-2.093c2.099-0.501,18.28-4.762,33.169-20.069c14.25-14.65,29.958-42.636,23.871-92.764 c-11.492-94.65-0.742-126.36,15.699-160.824c1.444-3.027,3.194-6.264,5.048-9.691c6.36-11.76,14.274-26.396,15.144-43.297 C364.331,145.808,358.234,129.656,344.881,113.51z"/>
</svg>
