<svg xmlns="http://www.w3.org/2000/svg" viewBox="0 0 330 160" fill="none" role="img" aria-label="Foot lateral view, right">
  <defs>
    <linearGradient id="footLatR" x1="165" y1="40" x2="165" y2="140" gradientUnits="userSpaceOnUse">
      <stop offset="0" stop-color="#B8975A" stop-opacity="0.10"/>
      <stop offset="1" stop-color="#B8975A" stop-opacity="0.02"/>
    </linearGradient>
  </defs>
  <g transform="translate(330,0) scale(-1,1)" fill="url(#footLatR)" stroke="#B8975A" stroke-width="2.4" stroke-linejoin="round" stroke-linecap="round">
    <path d="M46 134
             C31 134 22 122 22 105
             C22 87 28 70 40 61
             C51 53 61 49 73 46
             C85 43 93 41 101 43
             C150 50 204 68 246 94
             C263 103 277 111 284 120
             C289 126 288 133 280 134
             C270 135 260 133 251 132
             C212 131 182 131 156 128
             C136 124 116 114 96 118
             C78 121 58 131 48 133
             C46 133 46 134 46 134 Z"/>
  </g>
</svg>
