<svg xmlns="http://www.w3.org/2000/svg" viewBox="0 0 300 230" fill="none" role="img" aria-label="Foot lateral view with ankle, left">
  <defs>
    <linearGradient id="footLatL" x1="150" y1="74" x2="150" y2="212" gradientUnits="userSpaceOnUse">
      <stop offset="0" stop-color="#B8975A" stop-opacity="0.09"/>
      <stop offset="1" stop-color="#B8975A" stop-opacity="0.02"/>
    </linearGradient>
  </defs>
  <!-- foot + short, slim ankle column; heel left, toes right; clean rounded outline -->
  <path d="M72 205
           C110 207 165 207 208 205
           C224 205 236 204 242 199
           C247 195 247 187 241 182
           C232 177 210 174 190 171
           C170 168 158 162 150 154
           C144 147 139 138 137 128
           C136 114 136 102 136 90
           C136 74 130 70 119 70
           C108 70 102 74 102 90
           C102 110 103 132 101 152
           C99 172 93 190 78 199
           C68 204 58 205 55 207
           C53 209 56 210 64 209
           C69 208 72 207 72 205 Z"
        fill="url(#footLatL)" stroke="#B8975A" stroke-width="2.4" stroke-linejoin="round" stroke-linecap="round"/>
</svg>
