<svg xmlns="http://www.w3.org/2000/svg" viewBox="0 0 150 320" fill="none" role="img" aria-label="Foot sole, left">
  <defs>
    <linearGradient id="footSoleL" x1="75" y1="20" x2="75" y2="305" gradientUnits="userSpaceOnUse">
      <stop offset="0" stop-color="#B8975A" stop-opacity="0.10"/>
      <stop offset="1" stop-color="#B8975A" stop-opacity="0.02"/>
    </linearGradient>
  </defs>
  <g fill="url(#footSoleL)" stroke="#B8975A" stroke-width="2.4" stroke-linejoin="round" stroke-linecap="round">
    <!-- foot body: heel -> lateral edge -> ball -> forefoot toe-line -> medial edge with arch notch -->
    <path d="M73 303
             C59 304 48 296 45 279
             C41 258 35 222 34 196
             C33 170 26 140 31 118
             C34 100 42 86 55 80
             C70 73 94 71 110 80
             C120 92 118 112 112 130
             C106 152 100 176 98 200
             C96 230 99 260 92 280
             C87 296 85 303 73 303 Z"/>
    <!-- toes, big/medial on the right -->
    <ellipse cx="110" cy="62" rx="12"  ry="17"   transform="rotate(12 110 62)"/>
    <ellipse cx="90"  cy="53" rx="9"   ry="14"   transform="rotate(6 90 53)"/>
    <ellipse cx="72"  cy="50" rx="8.4" ry="13"/>
    <ellipse cx="55"  cy="55" rx="7.4" ry="11.5" transform="rotate(-6 55 55)"/>
    <ellipse cx="41"  cy="63" rx="6.6" ry="9.6"  transform="rotate(-13 41 63)"/>
  </g>
</svg>
