<svg xmlns="http://www.w3.org/2000/svg" viewBox="0 0 150 330" fill="none" role="img" aria-label="Foot outline, left">
  <defs>
    <linearGradient id="footSoleL" x1="75" y1="70" x2="75" y2="312" gradientUnits="userSpaceOnUse">
      <stop offset="0" stop-color="#B8975A" stop-opacity="0.09"/>
      <stop offset="1" stop-color="#B8975A" stop-opacity="0.02"/>
    </linearGradient>
  </defs>
  <!-- clean upright outline: straight-ish sides, rounded heel, soft toe bumps (no clefts) -->
  <path d="M34 300
           C26 290 24 264 24 234
           C24 200 25 164 30 138
           C33 120 36 108 41 99
           C48 92 48 84 55 84
           C62 84 62 92 69 92
           C76 92 76 82 83 82
           C90 82 90 90 97 90
           C104 90 104 80 111 80
           C118 80 119 83 123 86
           C129 92 131 110 133 134
           C136 168 137 204 135 234
           C134 264 131 290 122 300
           C113 310 100 312 79 312
           C57 312 42 310 34 300 Z"
        fill="url(#footSoleL)" stroke="#B8975A" stroke-width="2.4" stroke-linejoin="round" stroke-linecap="round"/>
</svg>
