<svg xmlns="http://www.w3.org/2000/svg" viewBox="0 0 120 120">
  <rect x="0" y="0" width="120" height="120" rx="26" fill="rgb(66,90,105)"/>
  <g transform="translate(-114.29,-33.05)">
    <path d="M168.772,126.176C162.87,126.256 156.878,121.215 156.878,115.105L156.878,70.965C156.878,64.851 162.136,59.919 168.62,59.919L178.497,59.919C186.944,59.919 191.701,64.779 191.701,75.143L191.701,82.836C191.701,92.463 188.929,98.908 179.856,98.908L171.074,98.908L171.074,126.189L169.301,126.189L168.772,126.176ZM171.044,87.698L176.029,87.698C178.576,87.698 179.531,86.295 179.531,83.689L179.531,74.621C179.531,72.007 178.576,70.6 176.029,70.6L171.044,70.6L171.044,87.698Z" fill="white" fill-rule="nonzero"/>
  </g>
</svg>
