<?xml version="1.0" encoding="UTF-8" standalone="no"?>
<!DOCTYPE svg PUBLIC "-//W3C//DTD SVG 1.1//EN" "http://www.w3.org/Graphics/SVG/1.1/DTD/svg11.dtd">
<!-- PIEDRO box mark — cropped from the full lockup (piedro-logo.svg) for the
     header, where the feet + strapline would render too small to read. -->
<svg width="100%" height="100%" viewBox="139.326 39.552 227.349 106.95" version="1.1" xmlns="http://www.w3.org/2000/svg" xml:space="preserve" style="fill-rule:evenodd;clip-rule:evenodd;stroke-linejoin:round;stroke-miterlimit:2;">
    <g>
        <path d="M352.925,146.502C360.518,146.502 366.675,140.345 366.675,132.748L366.675,53.306C366.675,45.71 360.518,39.552 352.925,39.552L153.08,39.552C145.484,39.552 139.326,45.71 139.326,53.306L139.326,132.748C139.326,140.345 145.484,146.502 153.08,146.502L352.925,146.502Z" style="fill:rgb(66,90,105);fill-rule:nonzero;"/>
        <rect x="194.823" y="59.894" width="14.258" height="66.292" style="fill:white;fill-rule:nonzero;"/>
        <path d="M212.211,59.874L236.989,59.874L236.989,73.244L226.869,73.244L226.869,85.412L234.319,85.412L234.319,98.221L226.869,98.221L226.869,112.805L236.989,112.805L236.989,126.186L212.211,126.186L212.211,59.874Z" style="fill:white;fill-rule:nonzero;"/>
        <path d="M240.106,59.874L258.579,59.874C268.537,59.874 274.992,62.009 274.992,76.868L274.992,113.458C274.992,123.39 268.461,126.186 262.014,126.186L240.106,126.186L240.106,59.874ZM254.766,115.04L256.907,115.04C259.069,115.04 260.414,112.719 260.345,109.554L260.345,76.494C260.414,73.329 259.069,71.015 256.907,71.015L254.766,71.015L254.766,115.04Z" style="fill:white;fill-rule:nonzero;"/>
        <path d="M278.288,59.874L294.443,59.874C303.842,59.874 311.101,60.522 311.101,73.329L311.101,82.009C311.101,89.259 308.712,93.264 302.496,93.717L302.496,93.908C309.025,94.359 311.652,98.274 311.652,105.698L311.652,126.186L297.96,126.186L297.96,103.743C297.96,100.602 297.154,97.987 294.132,97.987C293.417,97.987 293.012,98.082 292.454,98.274L292.454,126.186L278.288,126.186L278.288,59.874ZM292.454,88.187L293.574,88.187C295.561,88.187 297.96,87.346 297.96,83.548L297.96,75.102C297.96,71.289 295.561,70.456 293.574,70.456L292.454,70.456L292.454,88.187Z" style="fill:white;fill-rule:nonzero;"/>
        <path d="M168.772,126.176C162.87,126.256 156.878,121.215 156.878,115.105L156.878,70.965C156.878,64.851 162.136,59.919 168.62,59.919L178.497,59.919C186.944,59.919 191.701,64.779 191.701,75.143L191.701,82.836C191.701,92.463 188.929,98.908 179.856,98.908L171.074,98.908L171.074,126.189L169.301,126.189L168.772,126.176ZM171.044,87.698L176.029,87.698C178.576,87.698 179.531,86.295 179.531,83.689L179.531,74.621C179.531,72.007 178.576,70.6 176.029,70.6L171.044,70.6L171.044,87.698Z" style="fill:white;fill-rule:nonzero;"/>
        <path d="M337.883,59.212C336.912,60.332 336.338,61.778 336.338,63.367C336.338,66.852 339.177,69.698 342.65,69.698C344.52,69.698 346.201,68.88 347.36,67.598L347.36,67.595C348.714,70.964 349.119,74.949 349.119,79.003L349.119,107.057C349.119,117.548 346.412,127.574 331.674,127.574C316.947,127.574 314.226,117.548 314.226,107.057L314.226,79.003C314.226,68.507 316.947,58.477 331.674,58.477C334.036,58.477 336.095,58.734 337.883,59.212ZM328.882,112.073C328.882,114.387 329.452,116.433 331.674,116.433C333.905,116.433 334.459,114.387 334.459,112.073L334.459,73.991C334.459,71.662 333.905,69.619 331.674,69.619C329.452,69.619 328.882,71.662 328.882,73.991L328.882,112.073Z" style="fill:white;fill-rule:nonzero;"/>
        <path d="M342.01,63.824L342.32,63.824C343.267,63.824 343.165,64.364 343.165,64.999C343.165,65.357 343.165,65.721 343.324,66.042L344.52,66.042C344.401,65.822 344.377,64.817 344.377,64.475C344.377,63.506 343.579,63.44 343.324,63.419L343.324,63.405C344.117,63.276 344.401,62.767 344.401,62.097C344.401,61.178 343.871,60.683 343.041,60.683L340.803,60.683L340.803,66.042L342.01,66.042L342.01,63.824ZM342.01,61.579L342.554,61.579C342.947,61.579 343.192,61.773 343.192,62.272C343.192,62.624 343.041,63.067 342.554,63.067L342.01,63.067L342.01,61.579ZM347.221,63.367C347.221,65.875 345.172,67.914 342.65,67.914C340.146,67.914 338.105,65.875 338.105,63.367C338.105,60.849 340.146,58.801 342.65,58.801C345.172,58.801 347.221,60.849 347.221,63.367Z" style="fill:white;fill-rule:nonzero;"/>
    </g>
</svg>
