<?xml version="1.0" encoding="UTF-8" standalone="no"?>
<!DOCTYPE svg PUBLIC "-//W3C//DTD SVG 1.1//EN" "http://www.w3.org/Graphics/SVG/1.1/DTD/svg11.dtd">
<svg width="100%" height="100%" viewBox="0 0 367 183" version="1.1" xmlns="http://www.w3.org/2000/svg" xmlns:xlink="http://www.w3.org/1999/xlink" xml:space="preserve" xmlns:serif="http://www.serif.com/" style="fill-rule:evenodd;clip-rule:evenodd;stroke-linejoin:round;stroke-miterlimit:2;">
    <g>
        <path d="M148.559,168.967C147.803,169.83 145.724,169.725 143.854,169.981C141.574,170.235 140.286,171.046 140.286,172.992C140.286,174.558 141.426,175.824 143.7,175.824C148.078,175.824 148.559,172.082 148.559,171.394L148.559,168.967ZM149.519,173.952C149.519,174.713 149.519,175.523 150.382,175.523C150.557,175.523 150.787,175.493 151.091,175.445L151.091,176.256C150.811,176.305 150.557,176.353 150.304,176.353C148.784,176.353 148.559,175.523 148.559,174.457L148.559,173.772L148.507,173.772C147.9,175.322 146.156,176.659 143.676,176.659C141.22,176.659 139.326,175.722 139.326,172.992C139.326,169.955 141.955,169.322 144.105,169.144C148.412,168.839 148.583,168.559 148.583,166.437C148.583,165.854 147.929,163.886 144.968,163.886C142.64,163.886 141.095,165.095 140.971,167.347L140.009,167.347C140.135,164.491 141.905,163.049 144.968,163.049C147.239,163.049 149.519,163.757 149.519,166.437L149.519,173.952Z" style="fill:rgb(145,163,176);fill-rule:nonzero;"/>
        <rect x="152.042" y="158.293" width="0.965" height="18.06" style="fill:rgb(145,163,176);fill-rule:nonzero;"/>
        <path d="M158.748,175.244L158.8,175.244L162.339,163.353L163.631,163.353L167.199,175.244L167.248,175.244L170.892,163.353L171.954,163.353L167.78,176.353L166.588,176.353L163.022,164.565L162.972,164.565L159.379,176.353L158.167,176.353L154.04,163.353L155.076,163.353L158.748,175.244Z" style="fill:rgb(145,163,176);fill-rule:nonzero;"/>
        <path d="M180.684,168.967C179.921,169.83 177.849,169.725 175.974,169.981C173.701,170.235 172.407,171.046 172.407,172.992C172.407,174.558 173.547,175.824 175.825,175.824C180.203,175.824 180.684,172.082 180.684,171.394L180.684,168.967ZM181.644,173.952C181.644,174.713 181.644,175.523 182.505,175.523C182.682,175.523 182.908,175.493 183.211,175.445L183.211,176.256C182.932,176.305 182.682,176.353 182.429,176.353C180.909,176.353 180.684,175.523 180.684,174.457L180.684,173.772L180.632,173.772C180.023,175.322 178.276,176.659 175.801,176.659C173.346,176.659 171.447,175.722 171.447,172.992C171.447,169.955 174.08,169.322 176.226,169.144C180.531,168.839 180.706,168.559 180.706,166.437C180.706,165.854 180.052,163.886 177.091,163.886C174.765,163.886 173.22,165.095 173.092,167.347L172.134,167.347C172.26,164.491 174.033,163.049 177.091,163.049C179.368,163.049 181.644,163.757 181.644,166.437L181.644,173.952Z" style="fill:rgb(145,163,176);fill-rule:nonzero;"/>
        <path d="M181.87,163.353L183.01,163.353L187.841,175.217L192.293,163.353L193.379,163.353L187.815,177.749C187.286,179.012 186.855,179.997 186.3,180.427C185.617,180.961 184.731,181.011 183.261,181.011L183.261,180.176C184.629,180.176 185.312,179.997 185.966,179.34C186.352,178.961 186.701,178.001 187.31,176.279L181.87,163.353Z" style="fill:rgb(145,163,176);fill-rule:nonzero;"/>
        <path d="M193.862,172.029C194.014,174.435 195.811,175.824 198.166,175.824C199.857,175.824 202.291,175.322 202.291,173.07C202.291,170.865 200.063,170.536 197.835,170.083C195.585,169.626 193.357,169.045 193.357,166.389C193.357,163.808 195.865,163.049 198.063,163.049C200.82,163.049 202.867,164.235 202.867,167.198L201.909,167.198C201.886,164.842 200.239,163.886 198.063,163.886C196.291,163.886 194.32,164.543 194.32,166.389C194.32,168.462 196.543,168.791 198.641,169.244C201.225,169.725 203.249,170.332 203.249,173.07C203.249,175.877 200.443,176.659 198.166,176.659C195.205,176.659 192.976,175.063 192.904,172.029L193.862,172.029Z" style="fill:rgb(145,163,176);fill-rule:nonzero;"/>
        <path d="M210.153,174.834C212.441,174.834 214.307,173.028 214.307,169.801C214.307,166.551 212.441,164.743 210.153,164.743C207.855,164.743 205.997,166.551 205.997,169.801C205.997,173.028 207.855,174.834 210.153,174.834ZM210.153,162.802C214.383,162.802 216.63,165.879 216.63,169.801C216.63,173.698 214.383,176.767 210.153,176.767C205.919,176.767 203.672,173.698 203.672,169.801C203.672,165.879 205.919,162.802 210.153,162.802Z" style="fill:rgb(145,163,176);fill-rule:nonzero;"/>
        <path d="M218.542,163.115L220.608,163.115L220.608,165.23L220.659,165.23C221.587,163.581 223.083,162.802 224.992,162.802C228.503,162.802 229.587,164.818 229.587,167.685L229.587,176.46L227.396,176.46L227.396,167.426C227.396,165.801 226.363,164.743 224.685,164.743C222.026,164.743 220.734,166.522 220.734,168.922L220.734,176.46L218.542,176.46L218.542,163.115Z" style="fill:rgb(145,163,176);fill-rule:nonzero;"/>
        <path d="M240.968,168.51C240.867,166.42 239.288,164.743 237.125,164.743C234.828,164.743 233.458,166.47 233.304,168.51L240.968,168.51ZM243.083,172.222C242.496,175.168 240.376,176.767 237.381,176.767C233.122,176.767 231.109,173.826 230.981,169.749C230.981,165.748 233.615,162.802 237.251,162.802C241.974,162.802 243.419,167.22 243.291,170.443L233.304,170.443C233.226,172.768 234.544,174.834 237.457,174.834C239.265,174.834 240.529,173.956 240.918,172.222L243.083,172.222Z" style="fill:rgb(145,163,176);fill-rule:nonzero;"/>
        <path d="M247.42,172.112C247.445,173.703 248.778,174.345 250.212,174.345C251.266,174.345 252.596,173.932 252.596,172.651C252.596,171.549 251.083,171.165 248.472,170.601C246.369,170.139 244.267,169.398 244.267,167.064C244.267,163.678 247.191,162.807 250.036,162.807C252.932,162.807 255.594,163.78 255.875,167.038L252.418,167.038C252.317,165.627 251.24,165.243 249.93,165.243C249.112,165.243 247.907,165.397 247.907,166.472C247.907,167.779 249.958,167.961 252.033,168.447C254.163,168.932 256.238,169.702 256.238,172.164C256.238,175.649 253.212,176.78 250.186,176.78C247.111,176.78 244.116,175.623 243.959,172.112L247.42,172.112Z" style="fill:rgb(145,163,176);fill-rule:nonzero;"/>
        <path d="M262.078,163.167L264.742,163.167L264.742,165.603L262.078,165.603L262.078,172.164C262.078,173.397 262.382,173.703 263.614,173.703C264.001,173.703 264.359,173.676 264.742,173.6L264.742,176.446C264.129,176.549 263.331,176.572 262.617,176.572C260.385,176.572 258.44,176.06 258.44,173.421L258.44,165.603L256.23,165.603L256.23,163.167L258.44,163.167L258.44,159.194L262.078,159.194L262.078,163.167Z" style="fill:rgb(145,163,176);fill-rule:nonzero;"/>
        <path d="M274.25,168.371C273.919,166.522 273.121,165.551 271.355,165.551C269.049,165.551 268.381,167.345 268.334,168.371L274.25,168.371ZM268.334,170.676C268.434,172.985 269.563,174.034 271.587,174.034C273.05,174.034 274.229,173.135 274.454,172.317L277.662,172.317C276.635,175.445 274.454,176.78 271.463,176.78C267.276,176.78 264.693,173.908 264.693,169.805C264.693,165.833 267.432,162.807 271.463,162.807C275.972,162.807 278.15,166.6 277.894,170.676L268.334,170.676Z" style="fill:rgb(145,163,176);fill-rule:nonzero;"/>
        <path d="M288.729,169.834C288.729,167.731 287.886,165.551 285.558,165.551C283.172,165.551 282.398,167.677 282.398,169.834C282.398,171.984 283.224,174.034 285.579,174.034C287.964,174.034 288.729,171.984 288.729,169.834ZM278.896,163.167L282.353,163.167L282.353,164.859L282.398,164.859C283.274,163.449 284.713,162.807 286.349,162.807C290.502,162.807 292.372,166.167 292.372,169.931C292.372,173.472 290.424,176.78 286.553,176.78C284.964,176.78 283.455,176.089 282.582,174.777L282.533,174.777L282.533,181.087L278.896,181.087L278.896,163.167Z" style="fill:rgb(145,163,176);fill-rule:nonzero;"/>
        <path d="M301.373,170.473C300.76,170.772 300.082,170.952 299.399,171.101C298.287,171.355 297.708,171.631 297.708,172.514C297.708,173.124 298.366,173.726 299.274,173.726C300.411,173.726 301.291,173.046 301.373,171.687L301.373,170.473ZM306.17,173.426C306.17,174.411 306.218,175.523 306.775,176.355L301.672,176.355C301.547,176.002 301.471,175.471 301.499,175.12L301.448,175.12C300.385,176.332 298.842,176.685 297.227,176.685C294.698,176.685 292.604,175.471 292.604,172.719C292.604,168.574 297.455,168.726 300.008,168.247C300.687,168.119 301.373,167.918 301.373,167.084C301.373,166.201 300.534,165.872 299.731,165.872C298.188,165.872 297.882,166.656 297.863,167.211L293.213,167.211C293.363,163.52 296.85,162.916 299.956,162.916C306.218,162.916 306.17,165.518 306.17,168.046L306.17,173.426Z" style="fill:rgb(145,163,176);fill-rule:nonzero;"/>
        <path d="M307.798,158.318L312.8,158.318L312.8,164.66L312.852,164.66C313.715,163.648 314.823,162.916 316.947,162.916C319.298,162.916 321.444,164.359 321.444,167.363L321.444,176.355L316.444,176.355L316.444,169.482C316.444,167.967 316.264,166.908 314.796,166.908C313.938,166.908 312.8,167.337 312.8,169.432L312.8,176.355L307.798,176.355L307.798,158.318Z" style="fill:rgb(145,163,176);fill-rule:nonzero;"/>
        <path d="M332.266,168.323C332.266,167.109 331.353,166.123 330.066,166.123C328.575,166.123 327.716,166.908 327.489,168.323L332.266,168.323ZM327.465,170.924C327.59,172.418 328.451,173.475 330.016,173.475C330.826,173.475 331.706,173.174 332.114,172.541L336.784,172.541C335.775,175.372 333.018,176.685 330.041,176.685C325.848,176.685 322.688,174.208 322.688,169.84C322.688,166.025 325.469,162.916 329.609,162.916C334.815,162.916 337.062,165.822 337.062,170.924L327.465,170.924Z" style="fill:rgb(145,163,176);fill-rule:nonzero;"/>
        <path d="M346.459,170.473C345.853,170.772 345.168,170.952 344.49,171.101C343.38,171.355 342.795,171.631 342.795,172.514C342.795,173.124 343.455,173.726 344.362,173.726C345.499,173.726 346.382,173.046 346.459,171.687L346.459,170.473ZM351.256,173.426C351.256,174.411 351.308,175.523 351.866,176.355L346.763,176.355C346.635,176.002 346.56,175.471 346.583,175.12L346.534,175.12C345.471,176.332 343.933,176.685 342.316,176.685C339.793,176.685 337.693,175.471 337.693,172.719C337.693,168.574 342.541,168.726 345.096,168.247C345.777,168.119 346.459,167.918 346.459,167.084C346.459,166.201 345.625,165.872 344.822,165.872C343.274,165.872 342.975,166.656 342.951,167.211L338.304,167.211C338.451,163.52 341.934,162.916 345.044,162.916C351.308,162.916 351.256,165.518 351.256,168.046L351.256,173.426Z" style="fill:rgb(145,163,176);fill-rule:nonzero;"/>
        <path d="M359.655,166.556C357.858,166.556 357.455,168.247 357.455,169.788C357.455,171.355 357.858,173.046 359.655,173.046C361.446,173.046 361.853,171.355 361.853,169.788C361.853,168.247 361.446,166.556 359.655,166.556ZM366.673,176.355L361.853,176.355L361.853,174.919L361.801,174.919C361.172,175.749 360.413,176.685 357.957,176.685C354.247,176.685 352.452,173.024 352.452,169.736C352.452,166.656 353.64,162.916 358.038,162.916C359.53,162.916 360.865,163.572 361.623,164.684L361.675,164.684L361.675,158.318L366.673,158.318L366.673,176.355Z" style="fill:rgb(145,163,176);fill-rule:nonzero;"/>
        <path d="M62.899,26.771C62.899,27.37 63.389,27.86 63.988,27.86L65.653,27.86C66.252,27.86 66.742,27.37 66.742,26.771L66.742,1.245C66.742,0.646 66.252,0.156 65.653,0.156L63.988,0.156C63.389,0.156 62.899,0.646 62.899,1.245L62.899,26.771Z" style="fill:rgb(183,197,207);fill-rule:nonzero;"/>
        <path d="M67.609,26.771C67.609,27.37 68.099,27.86 68.698,27.86L70.363,27.86C70.962,27.86 71.452,27.37 71.452,26.771L71.452,1.245C71.452,0.646 70.962,0.156 70.363,0.156L68.698,0.156C68.099,0.156 67.609,0.646 67.609,1.245L67.609,26.771Z" style="fill:rgb(183,197,207);fill-rule:nonzero;"/>
        <path d="M72.425,26.771C72.425,27.37 72.914,27.86 73.514,27.86L75.176,27.86C75.775,27.86 76.265,27.37 76.265,26.771L76.265,1.245C76.265,0.646 75.775,0.156 75.176,0.156L73.514,0.156C72.914,0.156 72.425,0.646 72.425,1.245L72.425,26.771Z" style="fill:rgb(183,197,207);fill-rule:nonzero;"/>
        <path d="M77.238,26.771C77.238,27.37 77.728,27.86 78.327,27.86L79.992,27.86C80.591,27.86 81.081,27.37 81.081,26.771L81.081,5.955C81.081,5.356 80.591,4.866 79.992,4.866L78.327,4.866C77.728,4.866 77.238,5.356 77.238,5.955L77.238,26.771Z" style="fill:rgb(183,197,207);fill-rule:nonzero;"/>
        <path d="M81.946,26.771C81.946,27.37 82.436,27.86 83.035,27.86L84.702,27.86C85.301,27.86 85.791,27.37 85.791,26.771L85.791,5.955C85.791,5.356 85.301,4.866 84.702,4.866L83.035,4.866C82.436,4.866 81.946,5.356 81.946,5.955L81.946,26.771Z" style="fill:rgb(183,197,207);fill-rule:nonzero;"/>
        <path d="M86.866,26.771C86.866,27.37 87.356,27.86 87.955,27.86L89.618,27.86C90.217,27.86 90.706,27.37 90.706,26.771L90.706,10.77C90.706,10.171 90.217,9.681 89.618,9.681L87.955,9.681C87.356,9.681 86.866,10.171 86.866,10.77L86.866,26.771Z" style="fill:rgb(183,197,207);fill-rule:nonzero;"/>
        <path d="M91.47,26.771C91.47,27.37 91.959,27.86 92.559,27.86L94.225,27.86C94.825,27.86 95.314,27.37 95.314,26.771L95.314,10.77C95.314,10.171 94.825,9.681 94.225,9.681L92.559,9.681C91.959,9.681 91.47,10.171 91.47,10.77L91.47,26.771Z" style="fill:rgb(183,197,207);fill-rule:nonzero;"/>
        <path d="M96.179,26.771C96.179,27.37 96.669,27.86 97.268,27.86L98.935,27.86C99.535,27.86 100.025,27.37 100.025,26.771L100.025,15.477C100.025,14.878 99.535,14.388 98.935,14.388L97.268,14.388C96.669,14.388 96.179,14.878 96.179,15.477L96.179,26.771Z" style="fill:rgb(183,197,207);fill-rule:nonzero;"/>
        <path d="M101.097,26.771C101.097,27.37 101.587,27.86 102.186,27.86L103.853,27.86C104.452,27.86 104.942,27.37 104.942,26.771L104.942,15.477C104.942,14.878 104.452,14.388 103.853,14.388L102.186,14.388C101.587,14.388 101.097,14.878 101.097,15.477L101.097,26.771Z" style="fill:rgb(183,197,207);fill-rule:nonzero;"/>
        <path d="M105.807,26.771C105.807,27.37 106.297,27.86 106.896,27.86L108.563,27.86C109.162,27.86 109.652,27.37 109.652,26.771L109.652,20.291C109.652,19.693 109.162,19.202 108.563,19.202L106.896,19.202C106.297,19.202 105.807,19.693 105.807,20.291L105.807,26.771Z" style="fill:rgb(183,197,207);fill-rule:nonzero;"/>
        <path d="M110.621,26.771C110.621,27.37 111.111,27.86 111.71,27.86L113.377,27.86C113.976,27.86 114.466,27.37 114.466,26.771L114.466,20.291C114.466,19.693 113.976,19.202 113.377,19.202L111.71,19.202C111.111,19.202 110.621,19.693 110.621,20.291L110.621,26.771Z" style="fill:rgb(183,197,207);fill-rule:nonzero;"/>
        <path d="M62.899,50.836C62.899,51.435 63.389,51.924 63.988,51.924L65.653,51.924C66.252,51.924 66.742,51.435 66.742,50.836L66.742,44.254C66.742,43.654 66.252,43.165 65.653,43.165L63.988,43.165C63.389,43.165 62.899,43.654 62.899,44.254L62.899,50.836Z" style="fill:rgb(183,197,207);fill-rule:nonzero;"/>
        <path d="M67.609,60.2C67.609,60.799 68.099,61.289 68.698,61.289L70.363,61.289C70.962,61.289 71.452,60.799 71.452,60.2L71.452,39.354C71.452,38.755 70.962,38.265 70.363,38.265L68.698,38.265C68.099,38.265 67.609,38.755 67.609,39.354L67.609,60.2Z" style="fill:rgb(183,197,207);fill-rule:nonzero;"/>
        <path d="M72.425,60.2C72.425,60.799 72.914,61.289 73.514,61.289L75.176,61.289C75.775,61.289 76.265,60.799 76.265,60.2L76.265,34.672C76.265,34.072 75.775,33.583 75.176,33.583L73.514,33.583C72.914,33.583 72.425,34.072 72.425,34.672L72.425,60.2Z" style="fill:rgb(183,197,207);fill-rule:nonzero;"/>
        <path d="M77.238,60.2C77.238,60.799 77.728,61.289 78.327,61.289L79.992,61.289C80.591,61.289 81.081,60.799 81.081,60.2L81.081,34.699C81.081,34.1 80.591,33.61 79.992,33.61L78.327,33.61C77.728,33.61 77.238,34.1 77.238,34.699L77.238,60.2Z" style="fill:rgb(183,197,207);fill-rule:nonzero;"/>
        <path d="M81.946,60.2C81.946,60.799 82.436,61.289 83.035,61.289L84.702,61.289C85.301,61.289 85.791,60.799 85.791,60.2L85.791,34.591C85.791,33.991 85.301,33.502 84.702,33.502L83.035,33.502C82.436,33.502 81.946,33.991 81.946,34.591L81.946,60.2Z" style="fill:rgb(183,197,207);fill-rule:nonzero;"/>
        <path d="M62.899,128.024C62.899,128.623 63.389,129.113 63.988,129.113L65.653,129.113C66.252,129.113 66.742,128.623 66.742,128.024L66.742,107.069C66.742,106.47 66.252,105.98 65.653,105.98L63.988,105.98C63.389,105.98 62.899,106.47 62.899,107.069L62.899,128.024Z" style="fill:rgb(183,197,207);fill-rule:nonzero;"/>
        <path d="M67.609,132.532C67.609,133.131 68.099,133.621 68.698,133.621L70.363,133.621C70.962,133.621 71.452,133.131 71.452,132.532L71.452,101.759C71.452,101.16 70.962,100.67 70.363,100.67L68.698,100.67C68.099,100.67 67.609,101.16 67.609,101.759L67.609,132.532Z" style="fill:rgb(183,197,207);fill-rule:nonzero;"/>
        <path d="M72.425,132.532C72.425,133.131 72.914,133.621 73.514,133.621L75.176,133.621C75.775,133.621 76.265,133.131 76.265,132.532L76.265,97.324C76.265,96.726 75.775,96.236 75.176,96.236L73.514,96.236C72.914,96.236 72.425,96.726 72.425,97.324L72.425,132.532Z" style="fill:rgb(183,197,207);fill-rule:nonzero;"/>
        <path d="M77.238,137.386C77.238,137.985 77.728,138.475 78.327,138.475L79.992,138.475C80.591,138.475 81.081,137.985 81.081,137.386L81.081,97.188C81.081,96.589 80.591,96.099 79.992,96.099L78.327,96.099C77.728,96.099 77.238,96.589 77.238,97.188L77.238,137.386Z" style="fill:rgb(183,197,207);fill-rule:nonzero;"/>
        <path d="M81.946,137.386C81.946,137.985 82.436,138.475 83.035,138.475L84.702,138.475C85.301,138.475 85.791,137.985 85.791,137.386L85.791,92.67C85.791,92.071 85.301,91.581 84.702,91.581L83.035,91.581C82.436,91.581 81.946,92.071 81.946,92.67L81.946,137.386Z" style="fill:rgb(183,197,207);fill-rule:nonzero;"/>
        <path d="M86.866,64.991C86.866,65.59 87.356,66.08 87.955,66.08L89.618,66.08C90.217,66.08 90.706,65.59 90.706,64.991L90.706,34.723C90.706,34.124 90.217,33.634 89.618,33.634L87.955,33.634C87.356,33.634 86.866,34.124 86.866,34.723L86.866,64.991Z" style="fill:rgb(183,197,207);fill-rule:nonzero;"/>
        <path d="M86.866,132.605C86.866,133.204 87.356,133.694 87.955,133.694L89.618,133.694C90.217,133.694 90.706,133.204 90.706,132.605L90.706,87.8C90.706,87.201 90.217,86.711 89.618,86.711L87.955,86.711C87.356,86.711 86.866,87.201 86.866,87.8L86.866,132.605Z" style="fill:rgb(183,197,207);fill-rule:nonzero;"/>
        <path d="M91.47,132.386C91.47,132.985 91.959,133.475 92.559,133.475L94.225,133.475C94.825,133.475 95.314,132.985 95.314,132.386L95.314,34.831C95.314,34.232 94.825,33.742 94.225,33.742L92.559,33.742C91.959,33.742 91.47,34.232 91.47,34.831L91.47,132.386Z" style="fill:rgb(183,197,207);fill-rule:nonzero;"/>
        <path d="M96.179,127.811C96.179,128.41 96.669,128.9 97.268,128.9L98.935,128.9C99.535,128.9 100.025,128.41 100.025,127.811L100.025,34.64C100.025,34.041 99.535,33.551 98.935,33.551L97.268,33.551C96.669,33.551 96.179,34.041 96.179,34.64L96.179,127.811Z" style="fill:rgb(183,197,207);fill-rule:nonzero;"/>
        <path d="M101.097,118.014C101.097,118.613 101.587,119.103 102.186,119.103L103.853,119.103C104.452,119.103 104.942,118.613 104.942,118.014L104.942,34.75C104.942,34.151 104.452,33.661 103.853,33.661L102.186,33.661C101.587,33.661 101.097,34.151 101.097,34.75L101.097,118.014Z" style="fill:rgb(183,197,207);fill-rule:nonzero;"/>
        <path d="M105.807,79.472C105.807,80.071 106.297,80.561 106.896,80.561L108.563,80.561C109.162,80.561 109.652,80.071 109.652,79.472L109.652,34.665C109.652,34.066 109.162,33.576 108.563,33.576L106.896,33.576C106.297,33.576 105.807,34.066 105.807,34.665L105.807,79.472Z" style="fill:rgb(183,197,207);fill-rule:nonzero;"/>
        <path d="M110.621,64.935C110.621,65.534 111.111,66.024 111.71,66.024L113.377,66.024C113.976,66.024 114.466,65.534 114.466,64.935L114.466,39.455C114.466,38.856 113.976,38.366 113.377,38.366L111.71,38.366C111.111,38.366 110.621,38.856 110.621,39.455L110.621,64.935Z" style="fill:rgb(183,197,207);fill-rule:nonzero;"/>
        <path d="M49.933,71.83C50.173,72.379 49.92,73.024 49.371,73.264L47.843,73.931C47.294,74.171 46.649,73.918 46.409,73.369L36.18,49.983C35.94,49.434 36.192,48.789 36.741,48.549L38.266,47.881C38.815,47.641 39.46,47.893 39.7,48.442L49.933,71.83Z" style="fill:rgb(183,197,207);fill-rule:nonzero;"/>
        <path d="M45.615,73.716C45.855,74.265 45.603,74.91 45.054,75.15L43.529,75.817C42.98,76.057 42.335,75.805 42.095,75.256L31.865,51.869C31.624,51.32 31.877,50.675 32.426,50.435L33.951,49.768C34.499,49.528 35.144,49.781 35.385,50.33L45.615,73.716Z" style="fill:rgb(183,197,207);fill-rule:nonzero;"/>
        <path d="M41.204,75.646C41.445,76.195 41.192,76.84 40.643,77.08L39.119,77.748C38.57,77.988 37.925,77.736 37.684,77.187L27.454,53.8C27.214,53.251 27.466,52.606 28.015,52.366L29.542,51.698C30.091,51.458 30.736,51.71 30.976,52.259L41.204,75.646Z" style="fill:rgb(183,197,207);fill-rule:nonzero;"/>
        <path d="M36.794,77.575C37.034,78.124 36.782,78.769 36.233,79.009L34.708,79.677C34.159,79.917 33.514,79.665 33.274,79.116L24.931,60.043C24.691,59.494 24.943,58.849 25.492,58.609L27.019,57.941C27.568,57.701 28.213,57.953 28.453,58.502L36.794,77.575Z" style="fill:rgb(183,197,207);fill-rule:nonzero;"/>
        <path d="M32.481,79.463C32.721,80.011 32.469,80.656 31.92,80.897L30.393,81.565C29.844,81.805 29.199,81.552 28.959,81.004L20.616,61.93C20.376,61.381 20.628,60.736 21.177,60.496L22.704,59.828C23.253,59.588 23.898,59.84 24.138,60.389L32.481,79.463Z" style="fill:rgb(183,197,207);fill-rule:nonzero;"/>
        <path d="M27.975,81.435C28.215,81.984 27.962,82.629 27.413,82.869L25.887,83.536C25.338,83.776 24.693,83.523 24.453,82.974L18.039,68.314C17.799,67.765 18.051,67.12 18.6,66.88L20.129,66.211C20.678,65.97 21.323,66.223 21.563,66.772L27.975,81.435Z" style="fill:rgb(183,197,207);fill-rule:nonzero;"/>
        <path d="M23.755,83.281C23.995,83.83 23.743,84.475 23.194,84.715L21.667,85.383C21.118,85.623 20.473,85.371 20.233,84.822L13.819,70.157C13.579,69.608 13.831,68.963 14.38,68.723L15.907,68.056C16.456,67.816 17.101,68.069 17.341,68.617L23.755,83.281Z" style="fill:rgb(183,197,207);fill-rule:nonzero;"/>
        <path d="M19.439,85.168C19.68,85.716 19.427,86.362 18.878,86.602L17.351,87.27C16.803,87.51 16.158,87.257 15.917,86.709L11.392,76.359C11.151,75.81 11.404,75.165 11.953,74.925L13.479,74.259C14.028,74.019 14.673,74.272 14.913,74.82L19.439,85.168Z" style="fill:rgb(183,197,207);fill-rule:nonzero;"/>
        <path d="M14.934,87.139C15.174,87.688 14.921,88.333 14.372,88.573L12.846,89.241C12.297,89.481 11.652,89.229 11.412,88.68L6.887,78.33C6.647,77.781 6.9,77.136 7.449,76.897L8.973,76.23C9.522,75.99 10.167,76.243 10.408,76.792L14.934,87.139Z" style="fill:rgb(183,197,207);fill-rule:nonzero;"/>
        <path d="M10.618,89.026C10.858,89.574 10.606,90.219 10.057,90.46L8.533,91.128C7.984,91.368 7.339,91.115 7.098,90.567L4.501,84.629C4.261,84.08 4.513,83.435 5.062,83.195L6.587,82.527C7.136,82.286 7.781,82.539 8.021,83.088L10.618,89.026Z" style="fill:rgb(183,197,207);fill-rule:nonzero;"/>
        <path d="M6.21,90.954C6.45,91.503 6.198,92.148 5.649,92.388L4.119,93.057C3.571,93.297 2.926,93.044 2.686,92.495L0.09,86.558C-0.149,86.009 0.103,85.364 0.652,85.124L2.179,84.456C2.727,84.216 3.372,84.468 3.613,85.017L6.21,90.954Z" style="fill:rgb(183,197,207);fill-rule:nonzero;"/>
        <path d="M59.574,93.877C59.813,94.426 59.561,95.071 59.012,95.312L57.487,95.98C56.938,96.22 56.293,95.967 56.054,95.418L53.417,89.385C53.177,88.837 53.43,88.192 53.978,87.952L55.505,87.284C56.054,87.044 56.699,87.297 56.939,87.845L59.574,93.877Z" style="fill:rgb(183,197,207);fill-rule:nonzero;"/>
        <path d="M59.012,104.343C59.252,104.891 58.999,105.537 58.451,105.777L56.926,106.445C56.377,106.685 55.732,106.432 55.492,105.884L47.139,86.786C46.898,86.237 47.151,85.592 47.699,85.352L49.225,84.683C49.773,84.443 50.418,84.695 50.658,85.243L59.012,104.343Z" style="fill:rgb(183,197,207);fill-rule:nonzero;"/>
        <path d="M54.601,106.271C54.841,106.82 54.589,107.466 54.04,107.706L52.516,108.374C51.967,108.614 51.322,108.361 51.082,107.812L40.852,84.423C40.613,83.874 40.865,83.229 41.414,82.989L42.936,82.323C43.485,82.083 44.13,82.335 44.371,82.884L54.601,106.271Z" style="fill:rgb(183,197,207);fill-rule:nonzero;"/>
        <path d="M50.19,108.201C50.431,108.75 50.178,109.395 49.629,109.635L48.105,110.303C47.556,110.544 46.911,110.291 46.671,109.742L36.451,86.379C36.211,85.83 36.463,85.185 37.012,84.945L38.537,84.277C39.085,84.037 39.73,84.289 39.971,84.838L50.19,108.201Z" style="fill:rgb(183,197,207);fill-rule:nonzero;"/>
        <path d="M45.877,110.089C46.118,110.637 45.865,111.283 45.316,111.523L43.789,112.191C43.241,112.431 42.596,112.178 42.355,111.63L32.092,88.167C31.852,87.618 32.104,86.973 32.653,86.733L34.18,86.065C34.729,85.825 35.374,86.077 35.614,86.626L45.877,110.089Z" style="fill:rgb(183,197,207);fill-rule:nonzero;"/>
        <path d="M90.509,164.595C90.749,165.143 90.496,165.789 89.948,166.029L88.42,166.697C87.871,166.937 87.226,166.684 86.986,166.136L78.59,146.94C78.35,146.391 78.602,145.746 79.151,145.506L80.678,144.838C81.226,144.597 81.871,144.85 82.112,145.398L90.509,164.595Z" style="fill:rgb(183,197,207);fill-rule:nonzero;"/>
        <path d="M87.998,170.613C88.239,171.162 87.986,171.807 87.437,172.048L85.913,172.714C85.364,172.954 84.719,172.701 84.479,172.152L72.146,143.958C71.906,143.409 72.159,142.763 72.707,142.524L74.233,141.857C74.782,141.618 75.428,141.871 75.668,142.42L87.998,170.613Z" style="fill:rgb(183,197,207);fill-rule:nonzero;"/>
        <path d="M83.588,172.542C83.828,173.09 83.576,173.736 83.027,173.976L81.504,174.642C80.955,174.883 80.31,174.63 80.07,174.082L65.96,141.826C65.72,141.277 65.972,140.632 66.521,140.391L68.046,139.725C68.595,139.485 69.24,139.738 69.48,140.287L83.588,172.542Z" style="fill:rgb(183,197,207);fill-rule:nonzero;"/>
        <path d="M81.126,178.922C81.366,179.47 81.113,180.115 80.565,180.354L79.038,181.022C78.489,181.261 77.844,181.008 77.604,180.461L61.493,143.631C61.253,143.082 61.506,142.436 62.054,142.197L63.581,141.529C64.13,141.29 64.775,141.543 65.015,142.092L81.126,178.922Z" style="fill:rgb(183,197,207);fill-rule:nonzero;"/>
        <path d="M76.809,180.806C77.049,181.355 76.796,182.001 76.247,182.241L74.725,182.909C74.176,183.149 73.531,182.896 73.29,182.347L55.368,141.381C55.128,140.833 55.38,140.187 55.929,139.946L57.456,139.277C58.005,139.036 58.65,139.289 58.89,139.838L76.809,180.806Z" style="fill:rgb(183,197,207);fill-rule:nonzero;"/>
        <path d="M43.289,116.45C43.53,116.999 43.277,117.644 42.728,117.884L41.202,118.551C40.653,118.79 40.008,118.537 39.767,117.988L27.639,90.26C27.398,89.711 27.651,89.066 28.2,88.826L29.726,88.158C30.275,87.918 30.92,88.17 31.161,88.719L43.289,116.45Z" style="fill:rgb(183,197,207);fill-rule:nonzero;"/>
        <path d="M70.386,178.394C70.626,178.943 70.374,179.589 69.825,179.829L68.298,180.497C67.749,180.737 67.104,180.484 66.864,179.935L48.909,138.888C48.669,138.34 48.921,137.694 49.47,137.454L50.995,136.786C51.544,136.546 52.189,136.799 52.429,137.347L70.386,178.394Z" style="fill:rgb(183,197,207);fill-rule:nonzero;"/>
        <path d="M66.079,180.041C66.32,180.59 66.067,181.235 65.518,181.474L63.992,182.142C63.443,182.382 62.798,182.129 62.558,181.58L23.464,92.204C23.224,91.655 23.476,91.01 24.025,90.77L25.552,90.102C26.1,89.862 26.746,90.114 26.986,90.663L66.079,180.041Z" style="fill:rgb(183,197,207);fill-rule:nonzero;"/>
        <path d="M59.931,177.737C60.171,178.286 59.918,178.931 59.37,179.172L57.845,179.84C57.296,180.08 56.651,179.827 56.411,179.278L19.073,93.916C18.832,93.367 19.085,92.722 19.634,92.482L21.159,91.814C21.707,91.574 22.352,91.826 22.593,92.375L59.931,177.737Z" style="fill:rgb(183,197,207);fill-rule:nonzero;"/>
        <path d="M51.497,170.732C51.738,171.281 51.485,171.926 50.936,172.167L49.412,172.835C48.863,173.075 48.218,172.822 47.977,172.273L14.612,95.989C14.372,95.441 14.624,94.795 15.173,94.555L16.696,93.889C17.245,93.648 17.89,93.901 18.13,94.449L51.497,170.732Z" style="fill:rgb(183,197,207);fill-rule:nonzero;"/>
        <path d="M31.737,137.306C31.977,137.855 31.725,138.501 31.176,138.741L29.652,139.409C29.103,139.649 28.458,139.396 28.218,138.847L10.262,97.797C10.022,97.248 10.274,96.603 10.823,96.362L12.348,95.695C12.897,95.454 13.542,95.707 13.782,96.256L31.737,137.306Z" style="fill:rgb(183,197,207);fill-rule:nonzero;"/>
        <path d="M21.503,125.919C21.743,126.468 21.491,127.113 20.942,127.353L19.415,128.021C18.866,128.261 18.221,128.009 17.981,127.46L7.77,104.115C7.53,103.566 7.783,102.921 8.331,102.681L9.858,102.013C10.406,101.774 11.052,102.027 11.292,102.576L21.503,125.919Z" style="fill:rgb(183,197,207);fill-rule:nonzero;"/>
        <path d="M352.925,146.502C360.518,146.502 366.675,140.345 366.675,132.748L366.675,53.306C366.675,45.71 360.518,39.552 352.925,39.552L153.08,39.552C145.484,39.552 139.326,45.71 139.326,53.306L139.326,132.748C139.326,140.345 145.484,146.502 153.08,146.502L352.925,146.502Z" style="fill:rgb(66,90,105);fill-rule:nonzero;"/>
        <rect x="194.823" y="59.894" width="14.258" height="66.292" style="fill:white;fill-rule:nonzero;"/>
        <path d="M212.211,59.874L236.989,59.874L236.989,73.244L226.869,73.244L226.869,85.412L234.319,85.412L234.319,98.221L226.869,98.221L226.869,112.805L236.989,112.805L236.989,126.186L212.211,126.186L212.211,59.874Z" style="fill:white;fill-rule:nonzero;"/>
        <path d="M240.106,59.874L258.579,59.874C268.537,59.874 274.992,62.009 274.992,76.868L274.992,113.458C274.992,123.39 268.461,126.186 262.014,126.186L240.106,126.186L240.106,59.874ZM254.766,115.04L256.907,115.04C259.069,115.04 260.414,112.719 260.345,109.554L260.345,76.494C260.414,73.329 259.069,71.015 256.907,71.015L254.766,71.015L254.766,115.04Z" style="fill:white;fill-rule:nonzero;"/>
        <path d="M278.288,59.874L294.443,59.874C303.842,59.874 311.101,60.522 311.101,73.329L311.101,82.009C311.101,89.259 308.712,93.264 302.496,93.717L302.496,93.908C309.025,94.359 311.652,98.274 311.652,105.698L311.652,126.186L297.96,126.186L297.96,103.743C297.96,100.602 297.154,97.987 294.132,97.987C293.417,97.987 293.012,98.082 292.454,98.274L292.454,126.186L278.288,126.186L278.288,59.874ZM292.454,88.187L293.574,88.187C295.561,88.187 297.96,87.346 297.96,83.548L297.96,75.102C297.96,71.289 295.561,70.456 293.574,70.456L292.454,70.456L292.454,88.187Z" style="fill:white;fill-rule:nonzero;"/>
        <path d="M168.772,126.176C162.87,126.256 156.878,121.215 156.878,115.105L156.878,70.965C156.878,64.851 162.136,59.919 168.62,59.919L178.497,59.919C186.944,59.919 191.701,64.779 191.701,75.143L191.701,82.836C191.701,92.463 188.929,98.908 179.856,98.908L171.074,98.908L171.074,126.189L169.301,126.189L168.772,126.176ZM171.044,87.698L176.029,87.698C178.576,87.698 179.531,86.295 179.531,83.689L179.531,74.621C179.531,72.007 178.576,70.6 176.029,70.6L171.044,70.6L171.044,87.698Z" style="fill:white;fill-rule:nonzero;"/>
        <path d="M337.883,59.212C336.912,60.332 336.338,61.778 336.338,63.367C336.338,66.852 339.177,69.698 342.65,69.698C344.52,69.698 346.201,68.88 347.36,67.598L347.36,67.595C348.714,70.964 349.119,74.949 349.119,79.003L349.119,107.057C349.119,117.548 346.412,127.574 331.674,127.574C316.947,127.574 314.226,117.548 314.226,107.057L314.226,79.003C314.226,68.507 316.947,58.477 331.674,58.477C334.036,58.477 336.095,58.734 337.883,59.212ZM328.882,112.073C328.882,114.387 329.452,116.433 331.674,116.433C333.905,116.433 334.459,114.387 334.459,112.073L334.459,73.991C334.459,71.662 333.905,69.619 331.674,69.619C329.452,69.619 328.882,71.662 328.882,73.991L328.882,112.073Z" style="fill:white;fill-rule:nonzero;"/>
        <path d="M342.01,63.824L342.32,63.824C343.267,63.824 343.165,64.364 343.165,64.999C343.165,65.357 343.165,65.721 343.324,66.042L344.52,66.042C344.401,65.822 344.377,64.817 344.377,64.475C344.377,63.506 343.579,63.44 343.324,63.419L343.324,63.405C344.117,63.276 344.401,62.767 344.401,62.097C344.401,61.178 343.871,60.683 343.041,60.683L340.803,60.683L340.803,66.042L342.01,66.042L342.01,63.824ZM342.01,61.579L342.554,61.579C342.947,61.579 343.192,61.773 343.192,62.272C343.192,62.624 343.041,63.067 342.554,63.067L342.01,63.067L342.01,61.579ZM347.221,63.367C347.221,65.875 345.172,67.914 342.65,67.914C340.146,67.914 338.105,65.875 338.105,63.367C338.105,60.849 340.146,58.801 342.65,58.801C345.172,58.801 347.221,60.849 347.221,63.367Z" style="fill:white;fill-rule:nonzero;"/>
    </g>
</svg>
