<svg width="100%" viewBox="0 0 680 580" role="img" xmlns="http://www.w3.org/2000/svg" style="background:transparent">
  <title>Orthopedic shoe customization wireframe</title>
  <desc>Wireframe illustration of an orthopedic shoe with measurement tape elements and bilingual labels in English and Dutch.</desc>
  <defs>
    <marker id="arrow" viewBox="0 0 10 10" refX="8" refY="5" markerWidth="6" markerHeight="6" orient="auto-start-reverse">
      <path d="M2 1L8 5L2 9" fill="none" stroke="context-stroke" stroke-width="1.5" stroke-linecap="round" stroke-linejoin="round"/>
    </marker>
  </defs>

  <!-- Sole fill -->
  <path d="M100 320 Q110 350 160 365 Q240 382 370 378 Q470 374 530 355 Q570 340 575 320 L560 308 Q530 318 470 324 Q370 330 240 328 Q160 326 120 320 Z" fill="#e8e8e8" stroke="#555" stroke-width="1.5"/>
  <!-- Sole bottom edge -->
  <path d="M100 320 Q110 350 160 365 Q240 382 370 378 Q470 374 530 355 Q570 340 575 320" fill="none" stroke="#444" stroke-width="2.5" stroke-linecap="round"/>
  <!-- Sole texture -->
  <line x1="160" y1="362" x2="155" y2="374" stroke="#aaa" stroke-width="0.8"/>
  <line x1="210" y1="368" x2="207" y2="379" stroke="#aaa" stroke-width="0.8"/>
  <line x1="270" y1="372" x2="268" y2="382" stroke="#aaa" stroke-width="0.8"/>
  <line x1="330" y1="373" x2="329" y2="383" stroke="#aaa" stroke-width="0.8"/>
  <line x1="390" y1="371" x2="390" y2="381" stroke="#aaa" stroke-width="0.8"/>
  <line x1="450" y1="364" x2="452" y2="373" stroke="#aaa" stroke-width="0.8"/>
  <line x1="510" y1="352" x2="514" y2="360" stroke="#aaa" stroke-width="0.8"/>

  <!-- Upper body -->
  <path d="M120 320 Q118 290 125 260 Q132 230 155 210 Q180 192 220 184 Q260 178 300 180 Q340 182 365 192 Q395 205 415 228 Q430 245 440 268 Q448 285 450 300 L470 305 L510 290 L560 308 Q530 318 470 324 Q370 330 240 328 Q160 326 120 320 Z" fill="#f5f5f5" stroke="#444" stroke-width="2"/>

  <!-- Toe cap zone -->
  <path d="M125 260 Q132 230 155 210 Q180 192 220 184 Q250 178 272 182 Q272 182 270 210 Q268 235 255 258 Q240 278 215 288 Q185 295 155 290 Q132 285 120 320 Q118 290 125 260 Z" fill="none" stroke="#666" stroke-width="1.5" stroke-dasharray="6,4"/>

  <!-- Vamp/midfoot zone -->
  <path d="M270 182 Q300 180 340 182 Q370 185 395 205 Q385 230 372 255 Q350 272 305 286 Q280 288 258 282 Q255 258 268 235 Q270 210 272 182 Z" fill="none" stroke="#888" stroke-width="1.5" stroke-dasharray="5,4"/>

  <!-- Quarter/counter zone -->
  <path d="M390 205 Q415 228 430 245 Q440 268 448 285 Q450 300 450 308 Q420 316 380 320 Q350 322 310 322 Q285 322 260 320 Q258 282 280 288 Q305 286 330 282 Q355 272 375 252 Q392 232 390 205 Z" fill="none" stroke="#999" stroke-width="1.5" stroke-dasharray="5,4"/>

  <!-- Heel counter -->
  <path d="M450 300 L470 305 L510 290 L560 308 Q530 318 470 324 L450 320 Q448 308 450 300 Z" fill="#e0e0e0" stroke="#555" stroke-width="1.5"/>

  <!-- Insole suggestion -->
  <path d="M155 300 Q240 318 380 314 Q440 312 460 305" fill="none" stroke="#aaa" stroke-width="1" stroke-dasharray="3,3"/>

  <!-- Laces -->
  <line x1="264" y1="204" x2="306" y2="203" stroke="#ccc" stroke-width="1"/>
  <line x1="262" y1="219" x2="308" y2="218" stroke="#ccc" stroke-width="1"/>
  <line x1="261" y1="234" x2="308" y2="233" stroke="#ccc" stroke-width="1"/>
  <line x1="260" y1="249" x2="308" y2="249" stroke="#ccc" stroke-width="1"/>
  <line x1="260" y1="264" x2="308" y2="265" stroke="#ccc" stroke-width="1"/>
  <circle cx="264" cy="203" r="3" fill="none" stroke="#888" stroke-width="1"/>
  <circle cx="307" cy="203" r="3" fill="none" stroke="#888" stroke-width="1"/>
  <circle cx="263" cy="219" r="3" fill="none" stroke="#888" stroke-width="1"/>
  <circle cx="307" cy="219" r="3" fill="none" stroke="#888" stroke-width="1"/>
  <circle cx="262" cy="234" r="3" fill="none" stroke="#888" stroke-width="1"/>
  <circle cx="307" cy="234" r="3" fill="none" stroke="#888" stroke-width="1"/>
  <circle cx="261" cy="249" r="3" fill="none" stroke="#888" stroke-width="1"/>
  <circle cx="307" cy="249" r="3" fill="none" stroke="#888" stroke-width="1"/>

  <!-- Measurement tape — horizontal (length) -->
  <rect x="100" y="415" width="475" height="14" rx="2" fill="#f0f0f0" stroke="#888" stroke-width="0.8"/>
  <line x1="100" y1="415" x2="100" y2="429" stroke="#555" stroke-width="1.2"/>
  <line x1="575" y1="415" x2="575" y2="429" stroke="#555" stroke-width="1.2"/>
  <line x1="337" y1="415" x2="337" y2="426" stroke="#888" stroke-width="0.8"/>
  <line x1="218" y1="415" x2="218" y2="424" stroke="#aaa" stroke-width="0.7"/>
  <line x1="456" y1="415" x2="456" y2="424" stroke="#aaa" stroke-width="0.7"/>
  <line x1="159" y1="415" x2="159" y2="422" stroke="#bbb" stroke-width="0.6"/>
  <line x1="278" y1="415" x2="278" y2="422" stroke="#bbb" stroke-width="0.6"/>
  <line x1="397" y1="415" x2="397" y2="422" stroke="#bbb" stroke-width="0.6"/>
  <line x1="516" y1="415" x2="516" y2="422" stroke="#bbb" stroke-width="0.6"/>
  <line x1="102" y1="408" x2="573" y2="408" stroke="#555" stroke-width="0.8" marker-start="url(#arrow)" marker-end="url(#arrow)"/>
  <line x1="100" y1="325" x2="100" y2="413" stroke="#bbb" stroke-width="0.6" stroke-dasharray="3,3"/>
  <line x1="575" y1="318" x2="575" y2="413" stroke="#bbb" stroke-width="0.6" stroke-dasharray="3,3"/>
  <text x="337" y="448" text-anchor="middle" font-family="sans-serif" font-size="12" fill="#555">Length / Lengte</text>

  <!-- Measurement tape — vertical (height) -->
  <rect x="618" y="180" width="14" height="148" rx="2" fill="#f0f0f0" stroke="#888" stroke-width="0.8"/>
  <line x1="618" y1="180" x2="632" y2="180" stroke="#555" stroke-width="1.2"/>
  <line x1="618" y1="328" x2="632" y2="328" stroke="#555" stroke-width="1.2"/>
  <line x1="618" y1="254" x2="631" y2="254" stroke="#888" stroke-width="0.8"/>
  <line x1="618" y1="217" x2="630" y2="217" stroke="#aaa" stroke-width="0.7"/>
  <line x1="618" y1="291" x2="630" y2="291" stroke="#aaa" stroke-width="0.7"/>
  <line x1="610" y1="182" x2="610" y2="326" stroke="#555" stroke-width="0.8" marker-start="url(#arrow)" marker-end="url(#arrow)"/>
  <line x1="575" y1="180" x2="616" y2="180" stroke="#bbb" stroke-width="0.6" stroke-dasharray="3,3"/>
  <line x1="560" y1="328" x2="616" y2="328" stroke="#bbb" stroke-width="0.6" stroke-dasharray="3,3"/>
  <text x="648" y="260" text-anchor="middle" font-family="sans-serif" font-size="12" fill="#555">Height</text>
  <text x="648" y="274" text-anchor="middle" font-family="sans-serif" font-size="12" fill="#555">Hoogte</text>

  <!-- Width measurement -->
  <line x1="152" y1="295" x2="148" y2="340" stroke="#bbb" stroke-width="0.6" stroke-dasharray="2,3"/>
  <line x1="150" y1="298" x2="150" y2="337" stroke="#666" stroke-width="0.8" marker-start="url(#arrow)" marker-end="url(#arrow)"/>
  <text x="132" y="316" text-anchor="middle" font-family="sans-serif" font-size="12" fill="#666">W</text>

  <!-- Label: Toe cap / Neus -->
  <line x1="158" y1="228" x2="58" y2="148" stroke="#555" stroke-width="0.8" marker-end="url(#arrow)"/>
  <rect x="4" y="108" width="106" height="36" rx="4" fill="none" stroke="#555" stroke-width="0.8"/>
  <text x="57" y="123" text-anchor="middle" font-family="sans-serif" font-size="12" fill="#444">Toe cap</text>
  <text x="57" y="137" text-anchor="middle" font-family="sans-serif" font-size="12" fill="#888">Neus</text>

  <!-- Label: Upper / Bovenleer -->
  <line x1="318" y1="200" x2="290" y2="118" stroke="#555" stroke-width="0.8" marker-end="url(#arrow)"/>
  <rect x="232" y="80" width="106" height="36" rx="4" fill="none" stroke="#555" stroke-width="0.8"/>
  <text x="285" y="95" text-anchor="middle" font-family="sans-serif" font-size="12" fill="#444">Upper</text>
  <text x="285" y="109" text-anchor="middle" font-family="sans-serif" font-size="12" fill="#888">Bovenleer</text>

  <!-- Label: Heel counter / Hielversterker -->
  <line x1="505" y1="298" x2="556" y2="238" stroke="#555" stroke-width="0.8" marker-end="url(#arrow)"/>
  <rect x="538" y="200" width="118" height="36" rx="4" fill="none" stroke="#555" stroke-width="0.8"/>
  <text x="597" y="215" text-anchor="middle" font-family="sans-serif" font-size="12" fill="#444">Heel counter</text>
  <text x="597" y="229" text-anchor="middle" font-family="sans-serif" font-size="12" fill="#888">Hielversterker</text>

  <!-- Label: Orthopedic insole / Orthopedische zool -->
  <line x1="310" y1="312" x2="310" y2="395" stroke="#555" stroke-width="0.8" marker-end="url(#arrow)"/>
  <rect x="244" y="396" width="132" height="36" rx="4" fill="none" stroke="#555" stroke-width="0.8"/>
  <text x="310" y="411" text-anchor="middle" font-family="sans-serif" font-size="12" fill="#444">Orthopedic insole</text>
  <text x="310" y="425" text-anchor="middle" font-family="sans-serif" font-size="12" fill="#888">Orthopedische zool</text>

  <!-- Label: Outsole / Buitenzool -->
  <line x1="175" y1="373" x2="82" y2="468" stroke="#555" stroke-width="0.8" marker-end="url(#arrow)"/>
  <rect x="4" y="460" width="106" height="36" rx="4" fill="none" stroke="#555" stroke-width="0.8"/>
  <text x="57" y="475" text-anchor="middle" font-family="sans-serif" font-size="12" fill="#444">Outsole</text>
  <text x="57" y="489" text-anchor="middle" font-family="sans-serif" font-size="12" fill="#888">Buitenzool</text>

  <!-- Label: Lacing / closure / Veters / sluiting -->
  <line x1="262" y1="230" x2="140" y2="168" stroke="#555" stroke-width="0.8" marker-end="url(#arrow)"/>
  <rect x="50" y="150" width="122" height="36" rx="4" fill="none" stroke="#555" stroke-width="0.8"/>
  <text x="111" y="165" text-anchor="middle" font-family="sans-serif" font-size="12" fill="#444">Lacing / closure</text>
  <text x="111" y="179" text-anchor="middle" font-family="sans-serif" font-size="12" fill="#888">Veters / sluiting</text>

  <!-- Caption -->
  <text x="340" y="548" text-anchor="middle" font-family="sans-serif" font-size="11" fill="#aaa">Custom orthopedic shoe — maatschoen op maat</text>
</svg>
