<svg xmlns="http://www.w3.org/2000/svg" viewBox="0 0 120 120">
  <g opacity="0.45" transform="translate(52,8) rotate(-8)">
    <rect x="0" y="0" width="28" height="4" rx="2" fill="#546E7A"/>
    <rect x="0" y="7" width="34" height="4" rx="2" fill="#546E7A"/>
    <rect x="0" y="14" width="38" height="4" rx="2" fill="#546E7A"/>
    <rect x="0" y="21" width="36" height="4" rx="2" fill="#546E7A"/>
    <rect x="2" y="28" width="30" height="4" rx="2" fill="#546E7A"/>
    <rect x="4" y="35" width="24" height="4" rx="2" fill="#546E7A"/>
    <rect x="2" y="42" width="28" height="4" rx="2" fill="#546E7A"/>
    <rect x="0" y="49" width="34" height="4" rx="2" fill="#546E7A"/>
    <rect x="6" y="63" width="22" height="4" rx="2" fill="#546E7A"/>
  </g>
  <g transform="translate(10,20) rotate(-8)">
    <rect x="0" y="0" width="30" height="4.5" rx="2.25" fill="#546E7A"/>
    <rect x="0" y="8" width="38" height="4.5" rx="2.25" fill="#546E7A"/>
    <rect x="0" y="16" width="44" height="4.5" rx="2.25" fill="#546E7A"/>
    <rect x="0" y="24" width="42" height="4.5" rx="2.25" fill="#546E7A"/>
    <rect x="2" y="32" width="36" height="4.5" rx="2.25" fill="#546E7A"/>
    <rect x="4" y="40" width="28" height="4.5" rx="2.25" fill="#546E7A"/>
    <rect x="2" y="48" width="34" height="4.5" rx="2.25" fill="#546E7A"/>
    <rect x="0" y="56" width="40" height="4.5" rx="2.25" fill="#546E7A"/>
    <rect x="6" y="72" width="26" height="4.5" rx="2.25" fill="#546E7A"/>
    <rect x="12" y="80" width="16" height="4.5" rx="2.25" fill="#546E7A"/>
  </g>
</svg>
